<svg width="196" height="36" viewBox="0 0 196 36" fill="none" xmlns="http://www.w3.org/2000/svg">
<path d="M50.581 29V9.791H53.26V29H50.581ZM43.855 11.672V9.221H59.9575V11.672H43.855ZM62.722 29V15.4625H65.287V29H62.722ZM64.0045 12.755C63.5295 12.755 63.14 12.603 62.836 12.299C62.532 11.976 62.38 11.577 62.38 11.102C62.38 10.646 62.532 10.266 62.836 9.962C63.14 9.639 63.5295 9.4775 64.0045 9.4775C64.4795 9.4775 64.869 9.639 65.173 9.962C65.477 10.266 65.629 10.646 65.629 11.102C65.629 11.577 65.477 11.976 65.173 12.299C64.869 12.603 64.4795 12.755 64.0045 12.755ZM75.2515 29.285C73.9215 29.285 72.715 28.9715 71.632 28.3445C70.568 27.7175 69.7225 26.872 69.0955 25.808C68.4875 24.725 68.1835 23.528 68.1835 22.217C68.1835 20.887 68.4875 19.69 69.0955 18.626C69.7225 17.562 70.568 16.726 71.632 16.118C72.715 15.491 73.9215 15.1775 75.2515 15.1775C76.2965 15.1775 77.2655 15.377 78.1585 15.776C79.0515 16.156 79.821 16.7165 80.467 17.4575L78.757 19.1675C78.339 18.6735 77.826 18.303 77.218 18.056C76.629 17.79 75.9735 17.657 75.2515 17.657C74.3965 17.657 73.6365 17.8565 72.9715 18.2555C72.3065 18.6355 71.784 19.1675 71.404 19.8515C71.024 20.5355 70.834 21.324 70.834 22.217C70.834 23.11 71.024 23.8985 71.404 24.5825C71.784 25.2665 72.3065 25.808 72.9715 26.207C73.6365 26.606 74.3965 26.8055 75.2515 26.8055C75.9735 26.8055 76.629 26.682 77.218 26.435C77.826 26.169 78.3485 25.789 78.7855 25.295L80.467 27.005C79.84 27.727 79.0705 28.2875 78.1585 28.6865C77.2655 29.0855 76.2965 29.285 75.2515 29.285ZM91.6749 29L85.3479 22.0745L91.6179 15.4625H94.7244L87.7419 22.7585L87.8559 21.2765L94.9809 29H91.6749ZM83.0109 29V8.651H85.5759V29H83.0109ZM102.696 29.285C101.347 29.285 100.131 28.981 99.0479 28.373C97.9649 27.746 97.1099 26.9005 96.4829 25.8365C95.8559 24.7725 95.5424 23.566 95.5424 22.217C95.5424 20.887 95.8464 19.69 96.4544 18.626C97.0814 17.562 97.9174 16.726 98.9624 16.118C100.026 15.491 101.214 15.1775 102.525 15.1775C103.779 15.1775 104.881 15.4625 105.831 16.0325C106.8 16.6025 107.55 17.391 108.082 18.398C108.633 19.405 108.909 20.545 108.909 21.818C108.909 22.008 108.899 22.217 108.88 22.445C108.861 22.654 108.823 22.901 108.766 23.186H97.3379V21.0485H107.398L106.458 21.875C106.458 20.963 106.296 20.1935 105.973 19.5665C105.65 18.9205 105.194 18.4265 104.605 18.0845C104.016 17.7235 103.304 17.543 102.468 17.543C101.594 17.543 100.824 17.733 100.159 18.113C99.4944 18.493 98.9814 19.025 98.6204 19.709C98.2594 20.393 98.0789 21.2005 98.0789 22.1315C98.0789 23.0815 98.2689 23.9175 98.6489 24.6395C99.0289 25.3425 99.5704 25.8935 100.273 26.2925C100.976 26.6725 101.784 26.8625 102.696 26.8625C103.456 26.8625 104.149 26.7295 104.776 26.4635C105.422 26.1975 105.973 25.7985 106.429 25.2665L108.082 26.948C107.436 27.708 106.638 28.2875 105.688 28.6865C104.757 29.0855 103.76 29.285 102.696 29.285ZM113.369 29V9.791H115.934V29H113.369ZM110.034 17.7995V15.4625H119.268V17.7995H110.034ZM126.768 29V9.164H131.243V29H126.768ZM120.47 12.7835V8.879H137.541V12.7835H120.47ZM143.014 29.3135C141.741 29.3135 140.61 29.057 139.622 28.544C138.653 28.012 137.893 27.29 137.342 26.378C136.791 25.447 136.516 24.383 136.516 23.186V15.149H140.876V23.129C140.876 23.604 140.952 24.0125 141.104 24.3545C141.275 24.6965 141.522 24.9625 141.845 25.1525C142.168 25.3425 142.558 25.4375 143.014 25.4375C143.66 25.4375 144.173 25.238 144.553 24.839C144.933 24.421 145.123 23.851 145.123 23.129V15.149H149.483V23.1575C149.483 24.3735 149.208 25.447 148.657 26.378C148.106 27.29 147.346 28.012 146.377 28.544C145.408 29.057 144.287 29.3135 143.014 29.3135ZM161.37 29V21.1055C161.37 20.3835 161.142 19.804 160.686 19.367C160.249 18.911 159.688 18.683 159.004 18.683C158.529 18.683 158.111 18.7875 157.75 18.9965C157.389 19.1865 157.104 19.4715 156.895 19.8515C156.686 20.2125 156.582 20.6305 156.582 21.1055L154.9 20.279C154.9 19.196 155.138 18.246 155.613 17.429C156.088 16.612 156.743 15.985 157.579 15.548C158.434 15.092 159.394 14.864 160.458 14.864C161.484 14.864 162.386 15.111 163.165 15.605C163.963 16.08 164.59 16.7165 165.046 17.5145C165.502 18.3125 165.73 19.1865 165.73 20.1365V29H161.37ZM152.221 29V15.149H156.582V29H152.221ZM175.371 29.3135C173.87 29.3135 172.53 29.0095 171.352 28.4015C170.193 27.7745 169.281 26.91 168.616 25.808C167.951 24.706 167.619 23.4615 167.619 22.0745C167.619 20.6875 167.942 19.4525 168.588 18.3695C169.253 17.2675 170.146 16.403 171.267 15.776C172.388 15.149 173.651 14.8355 175.057 14.8355C176.425 14.8355 177.632 15.13 178.677 15.719C179.722 16.308 180.539 17.125 181.128 18.17C181.736 19.215 182.04 20.412 182.04 21.761C182.04 22.008 182.021 22.274 181.983 22.559C181.964 22.825 181.916 23.1385 181.84 23.4995L169.899 23.528V20.5355L179.988 20.507L178.107 21.761C178.088 20.963 177.964 20.3075 177.736 19.7945C177.508 19.2625 177.166 18.8635 176.71 18.5975C176.273 18.3125 175.732 18.17 175.086 18.17C174.402 18.17 173.803 18.3315 173.29 18.6545C172.796 18.9585 172.407 19.3955 172.122 19.9655C171.856 20.5355 171.723 21.229 171.723 22.046C171.723 22.863 171.865 23.566 172.15 24.155C172.454 24.725 172.872 25.1715 173.404 25.4945C173.955 25.7985 174.601 25.9505 175.342 25.9505C176.026 25.9505 176.644 25.8365 177.195 25.6085C177.746 25.3615 178.23 25.0005 178.648 24.5255L181.042 26.9195C180.358 27.7175 179.532 28.316 178.563 28.715C177.594 29.114 176.53 29.3135 175.371 29.3135ZM189.189 29.342C188.372 29.342 187.564 29.2375 186.766 29.0285C185.987 28.8195 185.256 28.525 184.572 28.145C183.907 27.746 183.337 27.29 182.862 26.777L185.341 24.269C185.797 24.763 186.339 25.1525 186.966 25.4375C187.593 25.7035 188.277 25.8365 189.018 25.8365C189.531 25.8365 189.92 25.7605 190.186 25.6085C190.471 25.4565 190.614 25.2475 190.614 24.9815C190.614 24.6395 190.443 24.383 190.101 24.212C189.778 24.022 189.36 23.8605 188.847 23.7275C188.334 23.5755 187.792 23.414 187.222 23.243C186.652 23.072 186.111 22.8345 185.598 22.5305C185.085 22.2265 184.667 21.8085 184.344 21.2765C184.021 20.7255 183.859 20.032 183.859 19.196C183.859 18.303 184.087 17.5335 184.543 16.8875C184.999 16.2225 185.645 15.7 186.481 15.32C187.317 14.94 188.296 14.75 189.417 14.75C190.595 14.75 191.678 14.959 192.666 15.377C193.673 15.776 194.49 16.3745 195.117 17.1725L192.637 19.6805C192.2 19.1675 191.706 18.8065 191.155 18.5975C190.623 18.3885 190.101 18.284 189.588 18.284C189.094 18.284 188.723 18.36 188.476 18.512C188.229 18.645 188.106 18.8445 188.106 19.1105C188.106 19.3955 188.267 19.6235 188.59 19.7945C188.913 19.9655 189.331 20.1175 189.844 20.2505C190.357 20.3835 190.899 20.545 191.469 20.735C192.039 20.925 192.58 21.1815 193.093 21.5045C193.606 21.8275 194.024 22.2645 194.347 22.8155C194.67 23.3475 194.832 24.0505 194.832 24.9245C194.832 26.2735 194.319 27.347 193.293 28.145C192.286 28.943 190.918 29.342 189.189 29.342Z" fill="white"/>
<path d="M24.6697 8.11692C24.6697 8.13127 24.6697 8.13127 24.6697 8.14562C24.311 8.13127 23.9523 8.11692 23.5649 8.11692H12.5161L14.0515 6.59593C15.4577 5.17538 17.0074 3.86963 18.801 3.86963C20.609 3.86963 22.1587 5.17538 23.5649 6.59593L24.3684 7.39947C24.5693 7.58601 24.6697 7.84429 24.6697 8.11692Z" fill="white"/>
<path d="M29.9046 19.8964C30.4642 19.8964 30.909 19.4372 30.909 18.8633V17.6005C30.909 11.9614 29.1871 10.2539 23.5623 10.2539H14.5225H10.8779C5.25312 10.2539 3.53125 11.9758 3.53125 17.6005V18.2175C3.53125 18.7915 3.97607 19.2363 4.53568 19.2363C5.74099 19.2363 6.70237 20.2121 6.70237 21.403C6.70237 22.594 5.74099 23.5841 4.53568 23.5841C3.97607 23.5841 3.53125 24.0289 3.53125 24.6028V25.2198C3.53125 30.859 5.25312 32.5665 10.8779 32.5665H14.5081H23.548C29.1728 32.5665 30.8947 30.8446 30.8947 25.2198C30.8947 24.6602 30.4498 24.2011 29.8902 24.2011C28.6849 24.2011 27.7235 23.2397 27.7235 22.0487C27.7379 20.8578 28.6993 19.8964 29.9046 19.8964ZM15.5269 28.0609C15.5269 28.6205 15.0678 29.0797 14.5081 29.0797C13.9486 29.0797 13.4894 28.6205 13.4894 28.0609V24.2154C13.4894 23.6558 13.9486 23.1966 14.5081 23.1966C15.0678 23.1966 15.5269 23.6558 15.5269 24.2154V28.0609ZM15.5269 18.605C15.5269 19.1646 15.0678 19.6237 14.5081 19.6237C13.9486 19.6237 13.4894 19.1646 13.4894 18.605V14.7595C13.4894 14.1999 13.9486 13.7407 14.5081 13.7407C15.0678 13.7407 15.5269 14.1999 15.5269 14.7595V18.605Z" fill="white"/>
</svg>
